<svg width="21" height="19" viewBox="0 0 21 19" fill="none" xmlns="http://www.w3.org/2000/svg">
<path d="M9.57155 10.7923V10.2923H9.07155H1.4284C0.87643 10.2923 0.5 9.88945 0.5 9.50002C0.5 9.11054 0.876497 8.7076 1.4284 8.7076H9.07155H9.57155V8.2076V1.29237C9.57155 0.908882 9.94147 0.5 10.5 0.5C11.0586 0.5 11.4285 0.908882 11.4285 1.29237V8.2076V8.7076H11.9285H19.5717C20.1235 8.7076 20.5 9.11051 20.5 9.50002C20.5 9.88948 20.1236 10.2923 19.5717 10.2923H11.9285H11.4285V10.7923V17.7077C11.4285 18.0911 11.0586 18.5 10.5 18.5C9.94145 18.5 9.57155 18.0911 9.57155 17.7077V10.7923Z" fill="#4E8D5C" stroke="#4E8D5C"/>
</svg>
