<svg width="93" height="72" viewBox="0 0 93 72" fill="none" xmlns="http://www.w3.org/2000/svg">
<path d="M12.3724 72H80.5899C88.7127 72 93 67.8282 93 59.857V20.747C93 12.776 88.7127 8.60425 80.5899 8.60425H70.3235C67.39 8.60425 66.45 8.12002 64.6071 6.22039L61.6364 3.0543C59.681 1.00571 57.688 0 53.8521 0H38.9223C35.0864 0 33.131 1.00571 31.138 3.0543L28.167 6.22039C26.3619 8.08277 25.3841 8.60425 22.4508 8.60425H12.3724C4.24947 8.60425 0 12.776 0 20.747V59.857C0 67.8282 4.24947 72 12.3724 72ZM12.8613 64.5874C9.43911 64.5874 7.4836 62.7998 7.4836 59.1865V21.4174C7.4836 17.8416 9.43911 16.0538 12.8613 16.0538H24.632C28.0166 16.0538 29.7465 15.4578 31.6643 13.4092L34.5225 10.2804C36.6285 8.00826 37.7563 7.41228 41.0659 7.41228H51.7085C55.0176 7.41228 56.1459 8.00826 58.2143 10.2431L61.1101 13.4092C63.0279 15.4578 64.7577 16.0538 68.1422 16.0538H80.1009C83.5607 16.0538 85.4788 17.8416 85.4788 21.4174V59.1865C85.4788 62.7998 83.5607 64.5874 80.1009 64.5874H12.8613ZM46.4811 59.6709C57.7629 59.6709 66.7884 50.7314 66.7884 39.5198C66.7884 28.3083 57.7629 19.3688 46.4811 19.3688C35.237 19.3688 26.2115 28.3083 26.2115 39.5198C26.2115 50.7314 35.237 59.6709 46.4811 59.6709ZM68.0669 26.1851C68.0669 28.9042 70.2859 31.0274 72.9935 30.9901C75.6257 30.9901 77.8447 28.8669 77.8447 26.1851C77.8447 23.5779 75.5881 21.3429 72.9935 21.3429C70.2859 21.3429 68.0669 23.5779 68.0669 26.1851ZM46.4811 52.8919C39.0729 52.8919 33.0181 46.932 33.0181 39.5198C33.0181 32.0703 39.0352 26.1478 46.4811 26.1478C53.9646 26.1478 59.9818 32.0703 59.9818 39.5198C59.9818 46.932 53.9646 52.8919 46.4811 52.8919Z" fill="#D9D9D9"/>
</svg>
