<svg width="22" height="18" viewBox="0 0 22 18" fill="none" xmlns="http://www.w3.org/2000/svg">
<path d="M14.5112 5.21455C15.6259 5.21455 16.5857 4.53001 16.9882 3.58374H20.3838C20.8999 3.58374 21.3333 3.14081 21.3333 2.60727C21.3333 2.07374 20.8999 1.64087 20.3838 1.64087H16.9882C16.596 0.684535 15.6362 0 14.5112 0C13.3862 0 12.4264 0.684535 12.0342 1.64087H0.980487C0.433478 1.64087 0 2.07374 0 2.60727C0 3.14081 0.433478 3.58374 0.980487 3.58374H12.0342C12.4367 4.53001 13.3966 5.21455 14.5112 5.21455ZM14.5112 3.84548C13.7991 3.84548 13.2417 3.29181 13.2417 2.60727C13.2417 1.9026 13.7991 1.359 14.5112 1.359C15.2337 1.359 15.7807 1.9026 15.7807 2.60727C15.7807 3.29181 15.2337 3.84548 14.5112 3.84548ZM0.949524 7.92249C0.433479 7.92249 0 8.35535 0 8.88889C0 9.41236 0.433479 9.85529 0.949524 9.85529H4.45864C4.86115 10.8217 5.821 11.4962 6.94598 11.4962C8.06064 11.4962 9.02048 10.8217 9.423 9.85529H20.3528C20.8999 9.85529 21.3333 9.42242 21.3333 8.88889C21.3333 8.35535 20.8999 7.92249 20.3528 7.92249H9.423C9.02048 6.96615 8.06064 6.29168 6.94598 6.29168C5.821 6.29168 4.86115 6.96615 4.45864 7.92249H0.949524ZM6.94598 10.1372C6.23383 10.1372 5.66618 9.58349 5.66618 8.88889C5.66618 8.18422 6.23383 7.65069 6.94598 7.65069C7.65812 7.65069 8.21545 8.18422 8.21545 8.88889C8.21545 9.58349 7.65812 10.1372 6.94598 10.1372ZM14.5112 17.7778C15.6362 17.7778 16.596 17.0932 16.9882 16.1369H20.3838C20.8999 16.1369 21.3333 15.704 21.3333 15.1705C21.3333 14.6269 20.8999 14.2041 20.3838 14.2041H16.9882C16.596 13.2478 15.6362 12.5632 14.5112 12.5632C13.3966 12.5632 12.4264 13.2478 12.0342 14.2041H0.980487C0.433478 14.2041 0 14.637 0 15.1705C0 15.694 0.433478 16.1369 0.980487 16.1369H12.0342C12.4264 17.0932 13.3862 17.7778 14.5112 17.7778ZM14.5112 16.4087C13.7991 16.4087 13.2417 15.855 13.2417 15.1705C13.2417 14.4658 13.7991 13.9323 14.5112 13.9323C15.2337 13.9323 15.7807 14.4658 15.7807 15.1705C15.7807 15.855 15.2337 16.4087 14.5112 16.4087Z" fill="white"/>
</svg>
