<svg width="69" height="65" viewBox="0 0 69 65" fill="none" xmlns="http://www.w3.org/2000/svg">
<g filter="url(#filter0_d_211_1506)">
<rect x="8" y="8.07178" width="52.022" height="48.9145" rx="10" fill="white"/>
</g>
<path d="M45.6044 30.3508H44.652V30.3047H34.0112V34.7515H40.693C39.7182 37.34 37.0988 39.1982 34.0112 39.1982C30.0936 39.1982 26.9173 36.2117 26.9173 32.5281C26.9173 28.8445 30.0936 25.8579 34.0112 25.8579C35.8195 25.8579 37.4647 26.4994 38.7174 27.5471L42.0616 24.4027C39.9499 22.5523 37.1254 21.4111 34.0112 21.4111C27.4818 21.4111 22.188 26.3887 22.188 32.5281C22.188 38.6674 27.4818 43.645 34.0112 43.645C40.5405 43.645 45.8343 38.6674 45.8343 32.5281C45.8343 31.7827 45.7528 31.0551 45.6044 30.3508Z" fill="#FFC107"/>
<path d="M23.5513 27.3537L27.4358 30.0323C28.4869 27.5855 31.0324 25.8579 34.0112 25.8579C35.8196 25.8579 37.4648 26.4994 38.7174 27.5471L42.0616 24.4027C39.95 22.5523 37.1255 21.4111 34.0112 21.4111C29.47 21.4111 25.5317 23.8218 23.5513 27.3537Z" fill="#FF3D00"/>
<path d="M34.0109 43.6453C37.0649 43.6453 39.8398 42.5464 41.9378 40.7593L38.2785 37.8478C37.0915 38.6932 35.6159 39.1985 34.0109 39.1985C30.9357 39.1985 28.3246 37.3548 27.3409 34.7817L23.4854 37.5749C25.4421 41.1751 29.4159 43.6453 34.0109 43.6453Z" fill="#4CAF50"/>
<path d="M45.6044 30.3508H44.6521V30.3047H34.0112V34.7515H40.6931C40.2249 35.9949 39.3742 37.0671 38.277 37.8481C38.2776 37.8475 38.2782 37.8475 38.2788 37.847L41.9381 40.7585C41.6792 40.9797 45.8344 38.0865 45.8344 32.5281C45.8344 31.7827 45.7528 31.0551 45.6044 30.3508Z" fill="#1976D2"/>
<defs>
<filter id="filter0_d_211_1506" x="0" y="0.0717773" width="68.022" height="64.9146" filterUnits="userSpaceOnUse" color-interpolation-filters="sRGB">
<feFlood flood-opacity="0" result="BackgroundImageFix"/>
<feColorMatrix in="SourceAlpha" type="matrix" values="0 0 0 0 0 0 0 0 0 0 0 0 0 0 0 0 0 0 127 0" result="hardAlpha"/>
<feMorphology radius="3" operator="dilate" in="SourceAlpha" result="effect1_dropShadow_211_1506"/>
<feOffset/>
<feGaussianBlur stdDeviation="2.5"/>
<feComposite in2="hardAlpha" operator="out"/>
<feColorMatrix type="matrix" values="0 0 0 0 0.411765 0 0 0 0 0.411765 0 0 0 0 0.411765 0 0 0 0.1 0"/>
<feBlend mode="normal" in2="BackgroundImageFix" result="effect1_dropShadow_211_1506"/>
<feBlend mode="normal" in="SourceGraphic" in2="effect1_dropShadow_211_1506" result="shape"/>
</filter>
</defs>
</svg>
