<svg width="204" height="204" viewBox="0 0 204 204" fill="none" xmlns="http://www.w3.org/2000/svg">
<rect width="204" height="204" rx="50" fill="#4E8D5C"/>
<path d="M96 51.7C107.6 51.7 116.45 53.75 122.55 57.85C128.75 61.95 131.55 68.45 130.95 77.35C130.75 80.55 129.7 83.75 127.8 86.95C125.9 90.15 123.1 93 119.4 95.5C115.7 97.9 111.05 99.6 105.45 100.6V100.9C116.45 100.9 124.55 103.45 129.75 108.55C134.95 113.55 137.3 119.9 136.8 127.6C136.5 133.7 134.7 138.95 131.4 143.35C128.2 147.75 123.9 151.15 118.5 153.55C113.2 155.85 107.15 157 100.35 157H57L57.3 152.05C61.1 151.95 63.75 151.1 65.25 149.5C66.75 147.8 67.65 145.55 67.95 142.75C68.25 139.85 68.5 136.55 68.7 132.85L72 69.85C72.1 67.15 72.25 64.85 72.45 62.95C72.65 60.95 72.85 59.3 73.05 58C71.25 58.1 69.4 58.2 67.5 58.3C65.7 58.4 63.9 58.5 62.1 58.6L62.55 52C68.05 52 73.5 51.95 78.9 51.85C84.3 51.75 90 51.7 96 51.7ZM98.1 104.95C95.1 104.95 92.35 105 89.85 105.1C87.45 105.1 85.05 105.2 82.65 105.4L80.85 139.15C80.75 141.85 80.6 144.15 80.4 146.05C80.2 147.95 80 149.55 79.8 150.85C81.4 150.95 83.3 151.05 85.5 151.15C87.8 151.15 89.9 151.15 91.8 151.15C93.8 151.15 95.1 151.15 95.7 151.15C103.4 151.15 109.7 149.25 114.6 145.45C119.6 141.65 122.3 136 122.7 128.5C123 122.6 122 117.95 119.7 114.55C117.5 111.05 114.5 108.6 110.7 107.2C106.9 105.7 102.7 104.95 98.1 104.95ZM96.45 57.1C93.25 57.1 90.8 57.55 89.1 58.45C87.5 59.35 86.35 60.85 85.65 62.95C85.05 65.05 84.65 67.95 84.45 71.65L82.95 99.55C84.85 99.55 86.75 99.55 88.65 99.55C90.55 99.45 92.3 99.35 93.9 99.25C99.6 98.95 104.15 97.7 107.55 95.5C111.05 93.3 113.6 90.55 115.2 87.25C116.8 83.85 117.65 80.3 117.75 76.6C117.95 71.2 116.95 67.1 114.75 64.3C112.55 61.5 109.75 59.6 106.35 58.6C103.05 57.6 99.75 57.1 96.45 57.1ZM159.621 140.5C162.021 140.5 163.971 141.45 165.471 143.35C166.971 145.15 167.621 147.35 167.421 149.95C167.321 152.65 166.371 154.9 164.571 156.7C162.771 158.5 160.721 159.4 158.421 159.4C156.121 159.4 154.171 158.5 152.571 156.7C150.971 154.9 150.221 152.65 150.321 149.95C150.521 147.35 151.521 145.15 153.321 143.35C155.221 141.45 157.321 140.5 159.621 140.5Z" fill="white"/>
</svg>
