<svg width="38" height="29" viewBox="0 0 38 29" fill="none" xmlns="http://www.w3.org/2000/svg">
<path d="M5.58062 28.057H32.6513C35.8746 28.057 37.576 26.4423 37.576 23.3572V8.21991C37.576 5.13479 35.8746 3.52015 32.6513 3.52015H28.5773C27.4132 3.52015 27.0402 3.33274 26.3089 2.5975L25.13 1.37209C24.354 0.579194 23.5631 0.189941 22.041 0.189941H16.1164C14.5942 0.189941 13.8182 0.579194 13.0273 1.37209L11.8484 2.5975C11.132 3.31832 10.7441 3.52015 9.58004 3.52015H5.58062C2.35721 3.52015 0.670898 5.13479 0.670898 8.21991V23.3572C0.670898 26.4423 2.35721 28.057 5.58062 28.057ZM5.77463 25.188C4.41661 25.188 3.64061 24.4962 3.64061 23.0977V8.4794C3.64061 7.09542 4.41661 6.40344 5.77463 6.40344H10.4456C11.7887 6.40344 12.4752 6.17277 13.2362 5.37986L14.3704 4.16888C15.2061 3.28948 15.6537 3.05881 16.967 3.05881H21.1903C22.5035 3.05881 22.9512 3.28948 23.772 4.15446L24.9211 5.37986C25.6822 6.17277 26.3686 6.40344 27.7117 6.40344H32.4572C33.8302 6.40344 34.5913 7.09542 34.5913 8.4794V23.0977C34.5913 24.4962 33.8302 25.188 32.4572 25.188H5.77463ZM19.1159 23.2852C23.5929 23.2852 27.1745 19.8252 27.1745 15.4858C27.1745 11.1465 23.5929 7.6865 19.1159 7.6865C14.654 7.6865 11.0724 11.1465 11.0724 15.4858C11.0724 19.8252 14.654 23.2852 19.1159 23.2852ZM27.6818 10.3247C27.6818 11.3771 28.5623 12.1989 29.6368 12.1844C30.6814 12.1844 31.5619 11.3627 31.5619 10.3247C31.5619 9.3156 30.6664 8.45057 29.6368 8.45057C28.5623 8.45057 27.6818 9.3156 27.6818 10.3247ZM19.1159 20.6614C16.1761 20.6614 13.7734 18.3547 13.7734 15.4858C13.7734 12.6025 16.1612 10.3103 19.1159 10.3103C22.0856 10.3103 24.4734 12.6025 24.4734 15.4858C24.4734 18.3547 22.0856 20.6614 19.1159 20.6614Z" fill="#121212"/>
</svg>
