<svg width="16" height="16" viewBox="0 0 13 16" fill="none" xmlns="http://www.w3.org/2000/svg">
<path d="M2.5166 15.8503H10.4833C11.7969 15.8503 12.441 15.2461 12.441 13.9277V8.34824C12.441 7.17895 11.9325 6.57475 10.8985 6.44913V4.62071C10.8985 1.63871 8.75433 0.202637 6.49993 0.202637C4.24552 0.202637 2.10132 1.63871 2.10132 4.62071V6.44913C1.06734 6.57475 0.558838 7.17895 0.558838 8.34824V13.9277C0.558838 15.2461 1.20295 15.8503 2.5166 15.8503ZM3.72857 4.47946C3.72857 2.65102 4.98291 1.64656 6.49993 1.64656C8.00855 1.64656 9.27129 2.65102 9.27129 4.47946V6.42565H3.72857V4.47946ZM2.78781 14.4299C2.4149 14.4299 2.22844 14.2651 2.22844 13.8571V8.41886C2.22844 8.00297 2.4149 7.85386 2.78781 7.85386H10.2205C10.5934 7.85386 10.7714 8.00297 10.7714 8.41886V13.8571C10.7714 14.2651 10.5934 14.4299 10.2205 14.4299H2.78781Z" fill="#D9D9D9"/>
</svg>
