<svg width="16" height="16" viewBox="0 0 16 16" fill="none" xmlns="http://www.w3.org/2000/svg">
<path d="M1.78036 16H9.02503C10.2196 16 10.8131 15.3822 10.8131 14.0341V8.32902C10.8131 7.16554 10.3661 6.54765 9.4798 6.40321V4.37313C9.4798 2.50352 10.6205 1.47643 11.9923 1.47643C13.3719 1.47643 14.5126 2.50352 14.5126 4.37313V6.06624C14.5126 6.63593 14.8363 6.93282 15.2602 6.93282C15.6686 6.93282 16 6.652 16 6.06624V4.51756C16 1.46841 14.0424 0 11.9923 0C9.9499 0 7.99231 1.46841 7.99231 4.51756V6.36314H1.78036C0.593453 6.36314 0 6.98094 0 8.32902V14.0341C0 15.3822 0.593453 16 1.78036 16ZM2.02699 14.5477C1.68787 14.5477 1.51831 14.3791 1.51831 13.9619V8.40123C1.51831 7.97597 1.68787 7.82351 2.02699 7.82351H8.78617C9.13298 7.82351 9.29486 7.97597 9.29486 8.40123V13.9619C9.29486 14.3791 9.13298 14.5477 8.78617 14.5477H2.02699Z" fill="#D9D9D9"/>
</svg>
