<svg width="20" height="18" viewBox="0 0 20 18" fill="none" xmlns="http://www.w3.org/2000/svg">
<path d="M9.97559 1.73144C9.20219 0.81738 7.47949 0 5.45801 0C2.75977 0 0.58008 1.39746 0 2.72461V15.917C0 16.7783 0.5625 17.1123 1.18653 17.1123C1.65235 17.1123 1.91602 16.9717 2.21485 16.752C2.8125 16.2686 3.78809 15.7061 5.45801 15.7061C7.13669 15.7061 8.27929 16.2686 8.78909 16.6992C9.07029 16.9102 9.39549 17.1123 9.97559 17.1123C10.5557 17.1123 10.8721 16.8926 11.1621 16.6992C11.707 16.2949 12.8145 15.7061 14.4932 15.7061C16.1631 15.7061 17.1563 16.2774 17.7363 16.752C18.0352 16.9717 18.2988 17.1123 18.7647 17.1123C19.3887 17.1123 19.9512 16.7783 19.9512 15.917V2.72461C19.3711 1.39746 17.2002 0 14.4932 0C12.4717 0 10.7578 0.81738 9.97559 1.73144ZM1.90723 3.33105C2.14454 2.75097 3.44532 1.7666 5.45801 1.7666C7.47069 1.7666 8.81539 2.75976 9.02639 3.33105V14.9238C8.12109 14.2735 6.82909 13.9219 5.45801 13.9219C4.07813 13.9219 2.79493 14.2735 1.90723 14.9502V3.33105ZM18.044 3.33105V14.9502C17.1563 14.2735 15.8731 13.9219 14.4932 13.9219C13.1221 13.9219 11.8301 14.2735 10.9248 14.9238V3.33105C11.1358 2.75976 12.4805 1.7666 14.4932 1.7666C16.5059 1.7666 17.8067 2.75097 18.044 3.33105Z" fill="#1C1C1E"/>
</svg>
