<svg width="25" height="25" viewBox="0 0 25 25" fill="none" xmlns="http://www.w3.org/2000/svg">
<path d="M11.5994 16.7223C12.7973 16.7223 13.9198 16.3657 14.8539 15.7565L18.1536 19.0178C18.3721 19.2258 18.6508 19.3299 18.9522 19.3299C19.5774 19.3299 20.037 18.847 20.037 18.2378C20.037 17.9555 19.939 17.6806 19.7281 17.4726L16.451 14.2262C17.1291 13.2753 17.5283 12.1239 17.5283 10.8758C17.5283 7.65911 14.8615 5.0293 11.5994 5.0293C8.34494 5.0293 5.67053 7.65911 5.67053 10.8758C5.67053 14.0925 8.33741 16.7223 11.5994 16.7223ZM11.5994 15.1622C9.2113 15.1622 7.25258 13.2307 7.25258 10.8758C7.25258 8.52086 9.2113 6.58935 11.5994 6.58935C13.9876 6.58935 15.9463 8.52086 15.9463 10.8758C15.9463 13.2307 13.9876 15.1622 11.5994 15.1622Z" fill="#7B7A7A"/>
</svg>
