<svg width="18" height="18" viewBox="0 0 18 18" fill="none" xmlns="http://www.w3.org/2000/svg">
<path d="M0.862229 6.88388C-0.482501 7.49908 -0.20125 9.37998 1.33684 9.38878L7.87594 9.41508C8.00774 9.41508 8.05164 9.46788 8.05164 9.59968L8.06924 16.0948C8.06924 17.6066 9.95894 17.9493 10.6268 16.4903L17.2802 2.09384C17.9921 0.555754 16.7968 -0.463776 15.329 0.212984L0.862229 6.88388ZM2.95402 7.80668C2.88371 7.80668 2.85735 7.72758 2.93645 7.68368L15.329 2.01473C15.4345 1.97079 15.496 2.03231 15.4432 2.13778L9.76554 14.4952C9.73044 14.5831 9.64254 14.5655 9.64254 14.4864L9.67764 8.57138C9.67764 8.03528 9.42274 7.77158 8.86904 7.77158L2.95402 7.80668Z" fill="#1C1C1E"/>
</svg>
