<svg width="19" height="19" viewBox="0 0 19 19" fill="none" xmlns="http://www.w3.org/2000/svg">
<path d="M9.0791 18.1582C14.0449 18.1582 18.1582 14.0537 18.1582 9.0791C18.1582 4.11328 14.0449 0 9.0703 0C4.10449 0 0 4.11328 0 9.0791C0 14.0537 4.11328 18.1582 9.0791 18.1582ZM9.0791 16.374C5.03613 16.374 1.79297 13.1221 1.79297 9.0791C1.79297 5.03613 5.02734 1.79296 9.0703 1.79296C13.1133 1.79296 16.3652 5.03613 16.374 9.0791C16.374 13.1221 13.1221 16.374 9.0791 16.374ZM4.97461 7.0312C5.3965 7.0312 5.748 6.6797 5.748 6.2578C5.748 5.8271 5.4053 5.4844 4.97461 5.4844C4.54394 5.4844 4.20117 5.8271 4.20117 6.2578C4.20117 6.6885 4.54394 7.0312 4.97461 7.0312ZM7.0928 6.8203H13.3682C13.6846 6.8203 13.9307 6.5742 13.9307 6.2578C13.9307 5.9414 13.6846 5.6953 13.3682 5.6953H7.0928C6.7764 5.6953 6.5303 5.9414 6.5303 6.2578C6.5303 6.5654 6.7852 6.8203 7.0928 6.8203ZM4.97461 9.8613C5.3965 9.8613 5.748 9.501 5.748 9.0791C5.748 8.6572 5.3965 8.3057 4.97461 8.3057C4.54394 8.3057 4.20117 8.6572 4.20117 9.0791C4.20117 9.5098 4.54394 9.8613 4.97461 9.8613ZM7.0928 9.6416H13.3682C13.6846 9.6416 13.9307 9.4043 13.9307 9.0791C13.9307 8.7627 13.6846 8.5254 13.3682 8.5254H7.0928C6.7852 8.5254 6.5303 8.7715 6.5303 9.0791C6.5303 9.3955 6.7852 9.6416 7.0928 9.6416ZM4.97461 12.6826C5.4053 12.6826 5.748 12.3398 5.748 11.9092C5.748 11.4873 5.3965 11.1357 4.97461 11.1357C4.54394 11.1357 4.20117 11.4785 4.20117 11.9092C4.20117 12.3398 4.54394 12.6826 4.97461 12.6826ZM7.0928 12.4717H13.3682C13.6846 12.4717 13.9307 12.2256 13.9307 11.9092C13.9307 11.5928 13.6846 11.3467 13.3682 11.3467H7.0928C6.7852 11.3467 6.5303 11.6016 6.5303 11.9092C6.5303 12.2256 6.7764 12.4717 7.0928 12.4717Z" fill="#1C1C1E"/>
</svg>
