<svg width="30" height="29" viewBox="0 0 30 29" fill="none" xmlns="http://www.w3.org/2000/svg">
<path d="M14.737 25.773C20.0764 25.773 24.4835 21.5128 24.4835 16.3605C24.4835 14.2759 23.7583 12.337 22.5435 10.7713L23.297 10.043C23.5418 9.80636 23.6736 9.52417 23.6736 9.25108C23.6736 8.6867 23.2122 8.24065 22.619 8.24065C22.2705 8.24065 22.0256 8.34078 21.7808 8.56836L21.0745 9.24198C19.6243 8.03128 17.8069 7.23022 15.8293 7.00265V6.08325C15.8293 5.48246 15.3397 5 14.737 5C14.1438 5 13.6447 5.48246 13.6447 6.08325V7.00265C8.81383 7.53973 5 11.5632 5 16.3605C5 21.5128 9.40709 25.773 14.737 25.773ZM14.737 23.8977C10.4147 23.8977 6.95871 20.5388 6.95871 16.3605C6.95871 12.1822 10.4147 8.83234 14.7276 8.83234C19.0499 8.83234 22.5248 12.1822 22.5342 16.3605C22.5436 20.5388 19.0594 23.8977 14.737 23.8977ZM14.737 17.9444C15.6411 17.9444 16.3661 17.2343 16.3661 16.3696C16.3661 15.7688 16.0177 15.259 15.4903 14.9769V10.7895C15.4903 10.3798 15.1608 10.0612 14.7276 10.0612C14.3133 10.0612 13.9837 10.3798 13.9837 10.7895V14.9769C13.4563 15.259 13.1079 15.7779 13.1079 16.3696C13.1079 17.2343 13.8331 17.9444 14.737 17.9444Z" fill="#D9D9D9"/>
</svg>
