<svg width="15" height="17" viewBox="0 0 15 17" fill="none" xmlns="http://www.w3.org/2000/svg">
<path d="M7.46505 16.6284C11.5586 16.6284 14.9373 13.3965 14.9373 9.48793C14.9373 7.90653 14.3814 6.43561 13.4501 5.24783L14.0277 4.69538C14.2154 4.51583 14.3164 4.30175 14.3164 4.09459C14.3164 3.66643 13.9627 3.32805 13.5079 3.32805C13.2408 3.32805 13.053 3.40401 12.8653 3.57666L12.3238 4.08768C11.212 3.16922 9.8186 2.56152 8.30249 2.38888V1.69141C8.30249 1.23563 7.9271 0.869629 7.46505 0.869629C7.01022 0.869629 6.6276 1.23563 6.6276 1.69141V2.38888C2.92393 2.79632 0 5.84863 0 9.48793C0 13.3965 3.37877 16.6284 7.46505 16.6284ZM7.46505 15.2058C4.15126 15.2058 1.50168 12.6577 1.50168 9.48793C1.50168 6.31822 4.15126 3.77692 7.45782 3.77692C10.7716 3.77692 13.4357 6.31822 13.4429 9.48793C13.4501 12.6577 10.7789 15.2058 7.46505 15.2058ZM7.46505 10.6895C8.15817 10.6895 8.71403 10.1508 8.71403 9.49485C8.71403 9.03905 8.4469 8.65233 8.04259 8.4383V5.26165C8.04259 4.95089 7.78992 4.70919 7.45782 4.70919C7.14017 4.70919 6.8875 4.95089 6.8875 5.26165V8.4383C6.48319 8.65233 6.21606 9.04597 6.21606 9.49485C6.21606 10.1508 6.77201 10.6895 7.46505 10.6895Z" fill="#D9D9D9"/>
</svg>
