<svg width="24" height="24" viewBox="0 0 24 24" fill="none" xmlns="http://www.w3.org/2000/svg">
<rect width="24" height="24" rx="12" fill="white"/>
<path d="M7.93638 20C8.32237 20 8.57255 19.8214 9.18013 19.292L11.9392 16.8556C11.9678 16.8237 12.0322 16.8237 12.0608 16.8556L14.827 19.292C15.4346 19.8214 15.6776 20 16.0708 20C16.6426 20 17 19.6492 17 19.0752V7.93895C17 6.6697 16.2566 6 14.8485 6H9.15154C7.74339 6 7 6.6697 7 7.93895V19.0752C7 19.6492 7.3574 20 7.93638 20ZM8.61544 17.9016C8.52252 17.9845 8.40815 17.959 8.40815 17.8378V8.02187C8.40815 7.51162 8.69407 7.26287 9.2659 7.26287H14.7341C15.3059 7.26287 15.5919 7.51162 15.5919 8.02187V17.8378C15.5919 17.959 15.4846 17.9845 15.3846 17.9016L12.4753 15.3886C12.1751 15.1207 11.832 15.1207 11.5247 15.3886L8.61544 17.9016Z" fill="#71B1A1"/>
</svg>
